<svg width="88" height="62" fill="none" xmlns="http://www.w3.org/2000/svg"><path d="M18.24 8.17h4.272l-3.204-3.307L18.24 8.17zM28.92 20.296h2.136l3.204-5.511h-2.136l-3.204 5.511zM24.648 20.296h2.136l3.204-5.511h-2.136l-3.204 5.511z" fill="#FFBD63"/><path d="M19.309 4.863h3.203v5.512c0 4.134 2.403 6.614 5.34 6.614h16.552L26.784 4.863l1.068-4.41-4.352.772c-1.949.33-3.55 1.736-4.191 3.638z" fill="#DE5833"/><path d="M19.309 4.863l2.189-.551c.96-.248 1.815.634 1.575 1.626l-.534 2.26-3.23-3.335z" fill="#7D3623"/><path d="M26.783 7.068c0 4.134 2.403 6.614 5.34 6.614h7.475L26.783 4.863v2.205zM44.403 16.99h-9.077l1.842 2.37c1.495 1.928 4.352 2.562 6.541 1.598l3.791-1.764-3.097-2.205z" fill="#9C452D"/><path d="M8.543 35.73l3.204 12.125C8.303 45.1 4.272 44.521 0 45.651l10.68 8.818h8.542v-3.307c0-7.22-4.084-12.925-10.679-15.433zM66.157 44.548l-5.286 16.535h11.747V58.88c0-5.567-2.43-10.941-6.46-14.331z" fill="#6FBF5C"/><path d="M81.16 61.083l6.408-6.614c-3.31-.965-6.22-.496-9.611 1.102l7.475-13.228c-7.769 1.185-14.416 7.634-16.499 16.26l-.587 2.48H81.16z" fill="#6FBF5C"/><path d="M16.605 56.675l8.544-35.276h42.61l-8.544 35.276h-42.61z" fill="#fff"/><path fill-rule="evenodd" clip-rule="evenodd" d="M23.494 19.194h46.988l-9.611 39.685H13.883l9.611-39.685zm34.04 35.275l7.475-30.866H26.83L19.355 54.47h38.178z" fill="#94B1FF"/><path d="M74.753 21.398l-4.271-2.204-8.544 35.275H42.716l-2.136 6.614h24.562l9.611-39.685z" fill="#668BFF"/><path d="M37.002 32.064l-1.148.276-1.762 5.65c-1.148 3.665-.213 7.027 2.43 8.68l1.922 1.185 2.67-1.185c3.657-1.653 6.674-4.988 7.822-8.68l1.762-5.65c-4.458-1.268-9.157-1.35-13.696-.276z" fill="#FFBD63"/><path d="M0 54.47l2.136 6.614H40.58l2.135-6.615H0z" fill="#94B1FF"/><path d="M26.698 57.777H16.02l-1.068-3.308h12.815l-1.068 3.308z" fill="#668BFF"/><path d="M46.986 61.084c1.255-5.071 5.66-8.819 10.92-8.819 3.684 0 6.941 1.819 8.997 4.657a9.683 9.683 0 013.684-.744c3.55 0 6.675 1.957 8.41 4.906h-32.01z" fill="#9BD96F"/></svg>