<svg width="65" height="51" fill="none" xmlns="http://www.w3.org/2000/svg"><path d="M60.126 40.598c2.6-1.293 4.238-3.512 4.238-6.406v-4.973h-4.832c-2.881 0-5.48 2.416-6.78 4.973l-8.731 16.38h13.562c2.656 0 4.916-1.012 6.78-2.894l-8.73-4.805 4.493-2.275z" fill="#9BD96F"/><path d="M21.304 15.256l-1.752-2.894-3.475 6.94-1.893-3.737a5.81 5.81 0 00-5.2-3.203h-3.39v3.371a5.77 5.77 0 003.221 5.17l3.758 1.882-6.979 3.456 2.91 1.742a8.686 8.686 0 006.188 1.068 8.543 8.543 0 004.323-2.304l1.046-1.04a8.465 8.465 0 002.316-4.298 8.58 8.58 0 00-1.073-6.153z" fill="#6FBF5C"/><path d="M47.411 0h-4.52v4.495h4.52v41.581h-4.52v4.495h4.52c2.486 0 4.52-2.022 4.52-4.495V4.496c0-2.473-2.033-4.496-4.52-4.496z" fill="#668BFF"/><path d="M42.89 0H20.287c-2.487 0-4.521 2.023-4.521 4.495v41.581c0 2.473 2.034 4.495 4.52 4.495H42.89c2.486 0 4.52-2.022 4.52-4.495V4.496C47.41 2.022 45.378 0 42.89 0z" fill="#94B1FF"/><path fill="#fff" d="M20.287 4.495h22.604v41.581H20.287z"/><path d="M38.37 20.229c0 6.405-6.782 7.866-6.782 7.866s-6.78-1.46-6.78-7.866v-4.495l4.096-1.35a8.362 8.362 0 015.369 0l4.096 1.35v4.495z" fill="#FFBD63"/><path d="M31.588 7.867c-3.56 0-6.894-1.658-9.041-4.495H40.63a11.316 11.316 0 01-9.042 4.495z" fill="#94B1FF"/><path fill="#E3EAD3" d="M23.677 38.209h15.822v3.371H23.677zM23.677 31.467h15.822v3.371H23.677z"/><path d="M28.141 44.952c-1.017 0-2.034.14-2.966.366a14.847 14.847 0 00-10.991-4.86h-.368C7.346 40.457 1.893 44.7 0 50.57h38.426c-2.232-3.371-6.018-5.619-10.285-5.619z" fill="#9BD96F"/></svg>