<svg xmlns="http://www.w3.org/2000/svg" xmlns:xlink="http://www.w3.org/1999/xlink" width="1200" height="460" viewBox="0 0 1200 460" preserveAspectRatio="xMidYMax">
<style>#Smoke{display:none;}.cloud-bottom{fill:#94d2ba;}.cloud-top{fill:#79c6a8;}.st1{fill:#000}.st2{clip-path:url(#SVGID_2_)}.st3{fill:#e1eff5}.st4{fill:#f4bd5d}.st5{fill:#cadfeb}.st6{clip-path:url(#SVGID_4_)}.st7{fill:#2c2c45}.st8{clip-path:url(#SVGID_6_)}.st9{fill:#974c2c}.st10{fill:#783e1f}.st11{fill:#d6e7f0}.st12{clip-path:url(#SVGID_8_)}.st13{fill:#6b6260;stroke:#000;stroke-miterlimit:10}.st14{opacity:.2;fill:#0f2229;enable-background:new}.st15{clip-path:url(#SVGID_10_)}.st16{fill:#e8f3f7}.st17{fill:#fff}.st18{clip-path:url(#SVGID_12_)}.st19{fill:#041624}.st20{clip-path:url(#SVGID_14_)}.st21{fill:#5c2e1b}.st22{fill:#000}.st23{clip-path:url(#SVGID_16_)}.st24{fill:#d9dde0}.st25{fill:#c3c7c9}.st26{fill:#ffe100}.st27{fill:#006e37}.st28{clip-path:url(#SVGID_18_)}.st29{fill:#d5e000}.st30{fill:#b3c700}.st31{fill:#ebdaca}.st32{clip-path:url(#SVGID_20_)}.st33{fill:#00b35c}.st34{fill:#008f48}.st35{fill:#d8e300}.st36{fill:#c7d100}.st37{fill:#00b35a}.st38{clip-path:url(#SVGID_22_)}.st39{fill:#ffff7a}.st40{fill:#ffffc9}.st41{fill:#ffb700}.st42{clip-path:url(#SVGID_24_)}.st43{clip-path:url(#SVGID_26_)}.st44{fill:#6d7375}.st45{clip-path:url(#SVGID_28_)}.st46{fill:#ffc800}.st47{fill:#383835}.st48{opacity:.29;fill:none;stroke:#000;stroke-width:3;stroke-miterlimit:10;enable-background:new}.st49{clip-path:url(#SVGID_30_)}.st50{opacity:.44}.st51{fill:#bdc8cc}.st52{clip-path:url(#SVGID_32_)}.st53{fill:#2a4c63}.st54{fill:#0e1921}.st55{fill:#223b4f}.st56{opacity:.6}.flame3{fill:#ffe100}</style>
<g id="Smoke">
<g id="cloud-back">
<path class="cloud cloud-top" d="M802.1 122c0-32.1-27.9-58.1-62.2-58.1s-62.2 26-62.2 58.1c0 1.3.1 2.6.2 3.9l-6.7-.2c-47.8 0-86.6 36.2-86.6 80.9s38.8 80.9 86.6 80.9 86.6-36.2 86.6-80.9c0-9.4-1.8-18.8-5.2-27.6 28.3-5.6 49.5-29 49.5-57z"/>
<path class="cloud cloud-bottom" d="M604.4 229.4c0-44.7 38.8-80.9 86.6-80.9l6.7.2c-.1-1.3-.2-2.6-.2-3.9 0-32.1 27.9-58.1 62.2-58.1 12.8-.1 25.3 3.7 36 10.7-9.9-19.9-31.4-33.7-56.4-33.7-34.4 0-62.2 26-62.2 58.1 0 1.3.1 2.6.2 3.9l-6.7-.2c-47.8 0-86.6 36.2-86.6 80.9 0 25.1 12.2 47.5 31.4 62.3-7.2-11.9-11-25.4-11-39.3z"/>
</g>
<g id="cloud-front">
<path class="cloud cloud-top" d="M749.9 197.7c0-12.2-10.6-22.2-23.7-22.2s-23.7 9.9-23.7 22.2c0 .5 0 1 .1 1.5H700c-18.2 0-33 13.8-33 30.8s14.8 30.8 33 30.8 33-13.8 33-30.8c0-3.6-.7-7.2-2-10.5 10.8-2.2 18.9-11.1 18.9-21.8z"/>
<path class="cloud cloud-bottom" d="M674.6 238.7c0-17 14.8-30.8 33-30.8h2.5c0-.5-.1-1-.1-1.5 0-12.2 10.6-22.2 23.7-22.2 4.9 0 9.6 1.4 13.7 4.1-4.2-8-12.5-12.9-21.5-12.8-13.1 0-23.7 9.9-23.7 22.2 0 .5 0 1 .1 1.5h-2.5c-18.2 0-33 13.8-33 30.8.1 9.4 4.5 18.2 12 23.8-2.8-4.6-4.2-9.8-4.2-15.1z"/>
</g>
</g>
<g id="Scientist"><path class="st1" d="M287.3 30.2l16.8 16.1-1.8-14.7-3.8-4.2z"/><defs><path id="SVGID_1_" d="M272.6 229.6s31.3 180.9 52.5 231.4l-34.1 1.5s-37.3-163.8-38.3-169.4c-7.1-41.8 19.9-63.5 19.9-63.5z"/></defs><clipPath id="SVGID_2_"><use xlink:href="#SVGID_1_" overflow="visible"/></clipPath><g class="st2"><path class="st3" d="M227.7 211.9h111.7v257.7H227.7z"/><path class="st4 glow" d="M273.6 234.6s9.7 108.3 39.2 223.1l14.4-15-53.6-208.1z"/><path class="st5" d="M260.3 241.5s32.1 205.3 38.8 214.8l-17.9 3.9-39.5-186.3s20-33.2 18.6-32.4z"/></g><defs><path id="SVGID_3_" d="M261 131.9s18.3 3 23.1 14.2c7.7 18.2-4.5 40.5-1.5 53s18.3 26.3 27 31.3c0 0-15.8 17.3-36.5-8.5-24.3-30.3-38.2-49-38.2-49l26.1-41z"/></defs><clipPath id="SVGID_4_"><use xlink:href="#SVGID_3_" overflow="visible"/></clipPath><g class="st6"><path class="st1" d="M229.6 114.2H329v147.9h-99.4z"/><path class="st7" d="M252.9 136.6s19.3 6 19.3 33.9 0 58.4 29.6 61.7c7.2.8 14.4-4.8 14.4-4.8s-22.4-94.2-24.7-95.5-38.6-7-38.6-7v11.7z"/></g><path class="st1" d="M219.3 53.6l-35.6 60.6L179 183l62.7-31.3z"/><defs><path id="SVGID_5_" d="M216 169.4l8-32s-6.6-19.1-4-53.3c2.1-26.6 12.7-74.7 54-64s33.3 46.5 29.3 73.9c-2.5 17.1-4.7 24.6-6.1 27.8-.6 1.3-2.1 2.1-3.5 1.7l-9.1-2.4s-6.6 17-23.3 20.3l-6.9 27.8 6.9 22.9-30.7 16-14.6-38.7z"/></defs><clipPath id="SVGID_6_"><use xlink:href="#SVGID_5_" overflow="visible"/></clipPath><g class="st8"><path class="st9" d="M188.5-21.5h134.7V231H188.5z"/><path class="st4 glow" d="M310.4 48.4c21.3 17.6-8.6 82.3-8.6 82.3l-13.4-3s-2.7 10.8-12.7 13.8-24.5 1.1-28.9.6c-.1 0-.2-.1-.2-.2s.1-.2.2-.2c3-.5 8.7-.9 10.4-1.7 19.3-8.6 25-24.9 25-24.9l11.4 3.2c10.1-26.4 14-73 14-73l2.8 3.1z"/><path class="st10" d="M316.2 60.6s-64.1-27-74.5 27c-8.2 42.2-.1 54.1-.1 54.1l-20.2 74.6S178 144 178 145.1 207.5 37 207.5 37l12-14.6 64.6-16.8 32.1 55z"/><path class="st4" d="M249.5 179.7l7.6-1.7 8.3-36.5H258z"/></g><path class="st11" d="M125.6 396.6c3.7 0 91.2 17.7 91.2 17.7l50-209.4-10.9-40.9-3 4.2-12.9 18.4-22.9-34.8-91.5 244.8z"/><defs><path id="SVGID_7_" d="M172.9 379c15.2 4.9 30.7 8.5 46.5 11l-17.5 121.8-77.5 9.5L172.9 379z"/></defs><clipPath id="SVGID_8_"><use xlink:href="#SVGID_7_" overflow="visible"/></clipPath><g class="st12"><path class="st13" d="M116.9 351.4h121.6v187.7H116.9z"/><path d="M165.9 374.5l-5 15c11 3.4 22.2 6.2 33.5 8.5 10.6 1.8 21.4 2.7 32.2 2.5l1.6-15s-54.2-6.4-62.3-11zM175.2 443.8l-21.8 68.5 7.4 2.5z"/></g><path class="st14" d="M255.8 164.1s-85.4 322.4-84.7 322.4 36-15.1 36-15.1l54.9-299-6.2-8.3z"/><defs><path id="SVGID_9_" d="M181.3 484.2s59-232.7 73.4-278.2c5.3-16.9 1.6-37.3 1.6-37.3l.5-8.7c8.4 9.1 24.7 44.9 20.6 65.4-5.3 26.7-24.5 77.2-31.7 126.7-4.7 32.2-12.9 97.1-8.9 121.7l-55.5 10.4z"/></defs><clipPath id="SVGID_10_"><use xlink:href="#SVGID_9_" overflow="visible"/></clipPath><g class="st15"><path class="st16" d="M170.3 129.7h125.4v371.6H170.3z"/><path class="st4 glow" d="M276.6 203.5s-32.9 91.6-43.2 148.6-6.9 139.7-6.9 139.7l23.5-5.1 43.5-257.1-16.9-26.1z"/><path class="st5" d="M248.5 169.3s19.8 8.4 28.1 34.2c0 0-.4-40.4-19.8-51.6l-8.3 17.4z"/></g><path class="st17" d="M226.1 310s29.1-85.5 42.3-110.3l-10.7-12.1 9.3-2.1-10.3-25.5-30.6 150z"/><defs><path id="SVGID_11_" d="M299.1 28.2s-5.9 14.3-19.4 22.2-53.6 19.9-59 19.9c0 0-7.5 42.8-27 50.8 0 0 6.4 30.6-14.5 51.5L168.7 183s-10.5-27.5 0-62 23.5-32 23.5-32 7.3-42.2 20.5-55.5 26-19.5 39-19.5 35.4 2.2 47.4 14.2z"/></defs><clipPath id="SVGID_12_"><use xlink:href="#SVGID_11_" overflow="visible"/></clipPath><g class="st18"><path class="st7" d="M130.5-5.6h179.1v204.1H130.5z"/><path class="st19" d="M295.7 22.9s-47.7-7.3-66 20.6S219 79.8 219 79.8s-16.3 35.7-38.8 46.7c7.3 20.8 1.7 56.5 1.7 56.5l-30.3 22.1L144 75.6l64.8-77.8 82.6 14.3 4.3 10.8z"/></g><defs><path id="SVGID_13_" d="M222.7 141.5s-6.1 1-12 8.7c-19.2 3.7-47.2 22-63 64.5-21.3 57.3-97 288.7-97 288.7l98-14s65.7-234.7 80.4-264-2.5-50.9-5.2-63.1-1.2-20.8-1.2-20.8z"/></defs><clipPath id="SVGID_14_"><use xlink:href="#SVGID_13_" overflow="visible"/></clipPath><g class="st20"><path class="st16" d="M39.4 115.1H249v395.4H39.4z"/><path class="st5" d="M210.3 145.3s-11 28.9-12.3 39.3c-.1 1 .6 1.9 1.6 2h.3c3.8-.2 11.6-.5 13.7 0L199 198.3s19.6 29 7.1 88.7 9.5-10.7 9.5-10.7l22.1-72.9-20.1-63.7-7.3 5.6z"/><path class="st17" d="M212.2 141s-10.3 35.8-10.3 43.1c0 0 15.9-1.1 17.7.7l-15 12.5s15.9 26 3.4 85.7 11.6-9.5 11.6-9.5l22.1-72.9-20.1-63.6-9.4 4z"/><path class="st5" d="M234.9 130.8c-1.2 1.2-4.8 9.7-12.7 17.6-7.9.6-11.9 5.5-14.7 9.8-9.3 5.6-21.3 18.8-26.2 29.1-55.7 117.2-89.2 324.9-77.6 322.7l-90.5-1.6 120.4-334.8 101.3-42.8z"/><path class="st5" d="M96.7 398.4c4.1 5.1 16.8 16.6 46.8 13.7.2 0 .3.1.3.2 0 .2-.1.3-.2.3-9.1 2.8-37.3 9.2-47.4-14 0-.2 0-.3.2-.4.1.1.2.1.3.2z"/></g><path class="st9" d="M231.6 70s-4.7-10.4-10.8-6.9-4.6 12.3-4.6 14 1.5 8.2 4.1 11.2c.5.6 1.4.7 2 .3.3-.2.5-.6.5-1 1.5-8 4.1-14.3 8.8-17.6z"/><ellipse transform="rotate(-75.599 185.293 327.591)" class="st5" cx="185.3" cy="327.6" rx="6.1" ry="4.2"/><path class="st21" d="M253.5 107.4l.4.7.9 1.7 1.4 2.3.9 1.2.9 1.2 1 1.2 1 1.1 1 1 1 .8.8.7.7.5.6.5h.1c.3.3.3.7 0 1-.2.2-.4.3-.6.2l-.8-.2c-.7-.2-1.4-.5-2-.8l-1.3-.7-1.3-.9-1.3-1.2-1.2-1.3-1.1-1.4-.9-1.5-.6-1.5c-.2-.5-.3-.9-.4-1.4-.2-.7-.3-1.4-.4-2.1v-.8c-.2-.3-.1-.8.2-1 .3-.2.8-.1 1 .2.1.1.1.3.1.4l-.1.1z"/><path d="M275.5 58.3c.5-.5 1.2-.9 1.8-1.2 1.4-.7 3-1.1 4.6-1.2h2.6l1.2.2 1 .3 1.4.7.5.3c.2.1.2.2.2.4 0 0 0 .1-.1.1l-.4.2h-.6l-.6-.2-.8-.2h-5.5l-1.1.2-2 .5-1.9.6c-.2.1-.3 0-.4-.2-.1-.1-.1-.3 0-.4 0-.1.1-.1.1-.1z"/><ellipse transform="rotate(-75.599 170.181 393.006)" class="st5" cx="170.2" cy="393" rx="6.1" ry="4.2"/><path class="scientist-eye" d="M276.2 79.8c.2-.6.4-1.1.6-1.7 1-3.3.7-6.4-.7-6.8s-3.5 1.9-4.5 5.2c-.3.8-.5 1.7-.6 2.6 1.8 0 3.5.2 5.2.7zM298.6 63l1.3.2c1 .3 1.9.7 2.7 1.3l1.2 1 .9 1.1.5.9v.3c.1.2 0 .3-.2.4h-.3l-.3-.2-.7-.6-2.1-1.7-2.3-1.5-1.1-.6c-.1-.1-.2-.3-.1-.4l.5-.2zM299.4 88.2c.3-.6.6-1.2.8-1.9.9-2.9.8-5.5-.1-5.8s-2.5 1.8-3.4 4.7l-.3 1c1.1.5 2.1 1.2 3 2z"/><path class="st22" d="M299.4 28.2c0-.1 2.9 26.9 8.6 34.3 0-.1 5-20.7-8.6-34.3z"/><ellipse class="st10" cx="226.7" cy="76.3" rx="4" ry="5.1"/><g><defs><path id="SVGID_15_" d="M165.3 203.7c11.3-12.7 24.3-10.5 35.2-4.1s53.5 46.2 187 46.3l-5 36.5s-57.3-4-107.2-10.2S181 242.4 170 232.7s-12.7-20.1-4.7-29z"/></defs><clipPath id="SVGID_16_"><use xlink:href="#SVGID_15_" overflow="visible"/></clipPath><g class="st23"><path class="st16" d="M349.6 364.1L130.9 237l71.4-121.9 218.7 127z"/><path class="st4 glow" d="M384.2 270.8c2.9-5.3-65.3 18-180.5-19.1l115.4 33.2 67.5-3.3-2.4-10.8z"/><path class="st5" d="M163.5 229.6s5.8-15.2 12.1-19.8c6.1-4.5 12.6-6 22.2-1.7s42.3 33.7 131.7 41.2 25.8-13.6 25.8-13.6l-186.7-61.6s-35 49.7-33.8 50.7 28.7 4.8 28.7 4.8z"/></g></g><path class="st5" d="M202.9 157.2s-19.2 27.1-6.8 40.2c0 0-25.7-2.5-30.9 6.6.1 0 16.2-36.8 37.7-46.8z"/></g><g id="Table"><path class="st24" d="M-42.3 481.7l941.7-145.3 392.7 145.3z"/><path class="st25" d="M870.1 402.8s26.1 8.8 63.4-.3 0-17.7 0-17.7l-56.3 2.7-7.1 15.3z"/><path class="st25 shadow" d="M903.3 399.1c-.1 2.9-1.3 5.7-3.4 7.8-10.4 11.5-43 19.9-81.6 19.9-47 0-85.1-12.4-85.1-27.8s38.1-27.8 85.1-27.8 85 12.6 85 27.9zM342.6 459.3c3.3-3.7 5.1-7.6 5.1-11.7 0-8.4-7.6-16.1-20.7-22.7L99.7 460c8.6 8.9 26.1 16.5 49.1 21.7h144c23.7-5.3 41.5-13.2 49.8-22.4z"/></g><g id="Creature"><path class="st26 flame flame1" d="M604.5 181.4s6.5 7.7 1.5 19-14.5 21.9-8.2 31.3-16.7-7.6-1.7-32.1c7.3-12.1 7.5-12.8 8.4-18.2z"/><path class="st27" d="M876.9 400.3s-14.1.5-19.4 10.4 3.9 6.2 5.8 4.1c0 0-6.3 12.6 0 10.7s13.7-10.7 13.5-11.2-4.4 11.2.7 8.6 9.3-13.5 9.3-13.5-1.8 8.1 2.1 6.9 7.6-11.3 2.9-15.3-11-2.7-14.9-.7z"/><defs><path id="SVGID_17_" d="M715.4 242.7s40.6 26.3 34.6 63-15 45.5-24.9 55.4c0 0 51.3 61.6 106.2 30s36.7-98.8 36.7-98.8-28.7-44-47.3-49.7-78-20.9-105.3.1z"/></defs><clipPath id="SVGID_18_"><use xlink:href="#SVGID_17_" overflow="visible"/></clipPath><g class="st28"><path class="st29 monster-mouth" d="M688.7 191.5h202.2v233.2H688.7z"/><path class="st30" d="M731.6 285.1s1.4-22 49.6-19.1 90.7 55.6 90.7 55.6l14.9-145.9s-196.1 13.8-193.5 16.4 38.3 93 38.3 93zM733.1 331s18.6 29.6 58 26.5 70.1-26 70.1-26-17.1 126.2-17.1 122.2-147.6-38.5-144.4-41.7 33.4-81 33.4-81z"/></g><path class="st27" d="M896 369.7s26.9 12.4 42.9 3.2 10.5-31.9-4.9-47.2c0 0 23.4 12.4 23.4 34.4s-20 42.2-65.4 30.9l4-21.3z"/><circle class="st17 monster-eye monster-eye__left" cx="729.5" cy="218.6" r="15.6"/><circle class="st31 monster-eye monster-eye__left" cx="735.5" cy="220.3" r="12.5"/><path class="st26 monster-eye monster-eye__left" d="M719.3 218.6c0-7.6 5.4-14.1 12.9-15.4l-2.7-.2c-8.6 0-15.6 7-15.6 15.6s7 15.6 15.6 15.6l2.7-.2c-7.5-1.3-12.9-7.8-12.9-15.4z"/><path class="st17" d="M705 254.3s2.4 18.3 10.3 25.4c0 0-.6-24.1 7.1-31.7 0 0 .5 16.8 3.9 23.6 0 0 2.9-22.3 8.3-27.8 0 0 2.3 21.8 5.8 25.8 0 0 .6-24.3 8-28.6 0 0-.9 15.3 1.6 22.4 0 0 5.3-19.4 12.6-23.6 0 0 0 15 1.4 20 0 0 1.3-14 11.2-19.7 0 0-1.4 14.7 0 19.7 0 0 4.6-13 13.3-18-.8 6-1.3 12-1.4 18 0 0 6.2-11.6 12.7-15.4 0 0-3.5 10.8-3.5 19 0 0 5.2-10.4 16.4-13.9 0 0-5.8 12.5-4.5 18.6 0 0 6.7-10.6 13.7-12.9.4-.1 1.5 1.6 2 1.5 7.4-1.5 0-8.8 0-8.8l-60.6-16-57.4 15.3-.9 7.1z"/><ellipse class="monster-eye monster-eye__left" cx="719.8" cy="212.2" rx="4.2" ry="3.4"/><path class="st17" d="M731.6 356.6s4.3-7.9 18.3-12.3c0 0-9.9 14.6-6.6 23.7 2.3-4.8 5.4-9.2 9.2-13 0 0-2 13.8 0 19.9 0 0 3.1-10.8 8.8-16.5 0 0-2.3 15.1 2.4 21.2 0 0 .5-7.1 6.4-16-1 6.5 1.2 12.9 3.9 19.4 0 0-1.5-9.6 4.2-15.3 0 0 .9 11.6 4.6 15.3 0 0 .7-12.2 4.8-16.3-1.3 6 3.3 16.6 5.6 16.3-.3-6.4-.6-10.5 1.3-17.6 0 0 3.6 13.7 8.7 16.7 0 0-4.5-9.7-1.5-17.1 3.5 7.3 6.9 12.1 11.4 14.9l-34.7 16.9-45.7-31-1.1-9.2z"/><defs><path id="SVGID_19_" d="M694.6 264.3s-4.8-32.2 37.3-44.7c0 0 8.7-11.8 17.3-11.8 5-.1 9.8 2.3 12.7 6.4 0 0 5.3-6.4 16-6.4s13.3 10.5 13.3 10.5 61.3.7 95.3 52.7 30 70.7 24 92.7-23.1 56.8-82.3 51.7c-46.3-4-87.8-19-109.7-62.3-2.7-5.3-.7-11.7 3.3-9.3s24.9 44.2 70 41.4c32.4-2 46.7-30.7 51.4-58.1 2.2-13.1 10.2-79-66.2-86.5-50.6-5.1-78.1 19.4-82.4 23.7z"/></defs><clipPath id="SVGID_20_"><use xlink:href="#SVGID_19_" overflow="visible"/></clipPath><g class="st32"><path class="st33" d="M664.2 180.7H940v254.7H664.2z"/><path class="st34" d="M791.2 218.3s95.6 22.1 95.6 96c0 68.3-37.3 91.8-70.1 90.5-59.5-2.3-102.8-49.7-102.8-49.7l55.3 60.6 104.1 19.5 55.2-70.1-3.8-169.9-133.5 23.1z"/><path class="st35" d="M729.5 217.3s-30.4 16.6-23.4 44.2l-19 9.4s-5.1-40.7 42.4-53.6z"/><path class="st36" d="M714.6 346.3s73.1 87.3 117.1 13.6c0 0-105-23.3-107-23.3s-10.1 9.7-10.1 9.7zM733 221.8s10-22.9 29-8.6l-.9 4.5c4.3-5 10-8.4 16.4-9.9l24.9-5.9-33.9-12.6-16.3 5.3s-27.5 20.9-26.1 21.7 6.9 5.5 6.9 5.5z"/><ellipse transform="rotate(-69.102 854.938 235.653)" class="st34" cx="855" cy="235.6" rx="20.7" ry="19.3"/><path class="st35" d="M709.5 236.7c.6-.6 9.9-13 23.4-14.9 0 0-3.8-4.2-4.4-4.2s-20.6 7.8-20.6 9.6 1.6 9.5 1.6 9.5z"/><path class="st34" d="M773.2 206.6c.3 0 13.5 1.8 12.4 10.7l5.6 1.1 2.3-11.3-20.3-.5zM743.5 206.4c.3 0 14 2.5 14.6 11l3 .4 2.4-11-20-.4z"/><path class="st36" d="M688 263.3s28.5-23.9 59.6-26.8 59.7 1.7 78 24.3c0 0-137.3 18.2-137.3 16.5s-.3-14-.3-14z"/></g><ellipse class="st31 monster-eye monster-eye__right" cx="845" cy="231.6" rx="20.7" ry="19.3"/><ellipse class="st17 monster-eye monster-eye__right" cx="840.5" cy="231" rx="16.1" ry="15"/><ellipse cx="850.3" cy="229.1" rx="4.2" ry="4.2" class="monster-eye monster-eye__right"/><path class="st37" d="M871.9 270.4s22.6-12.4 28.4 4.5-6.6 20.2-19.7 18.2c0 0 1.9-6.8-8.7-22.7z"/><path class="st34" d="M900.3 274.9c-3.7-10.8-14.2-9.6-21.3-7.4 6.8-1.6 15.8-1.6 19 7.9s-.1 15.7-6 17.8c7.6-1.5 12.3-6.7 8.3-18.3z"/><path class="st34" d="M876.1 275.5s12.1-6.6 15.2 2.4-2.2 9.7-9.6 9.7c-1.5-4.2-3.3-8.3-5.6-12.1z"/><defs><path id="SVGID_21_" d="M843.6 324.4s-96.8-2.7-137.6 24c-57.4 37.6-119.6 7.1-114.8-43.4s26.6-67.9 18.6-88.7c-10.9-28.3 15-51.9 30.2-61.2 0 0-11.4 29.9-5.5 47.7 13.3 39.9 5.6 22.7 5.6 41.8s5.3 43.4 10.7 2.8 12-49.3 16.7-55.3c7.9-10.1 17.7-23.4 5.1-41.1 0 0 33.5 11.7 8.6 58.8-18.1 34.2 3.2 56.1 15.4 63.1s39.1-8.6 51.8-1.3 36.6 29.5 49.6 31.9c15.1 2.8 38.8 5.6 46.3 1.3.8 6.5.6 13.1-.7 19.6z"/></defs><clipPath id="SVGID_22_"><use xlink:href="#SVGID_21_" overflow="visible"/></clipPath><g class="st38"><path class="st26" d="M530.7 110.3H851v288.8H530.7z"/><path class="st39" d="M790.8 306.2c-15.2-2.2-20.8-9.3-41.9-17.6s-39 1.6-48.3.7c-22.1-2.2-31.3-24.8-36.7-37.4 0 0-13.4 33.2 12.4 57.1-12.9-22.2-23.9-45.4-32.8-69.5 0 0-51.3 92.5 14.7 98.3 31.5 2.8 58.3-8.3 81.7-13.5 51.8-11.5 111.7-.5 112.6-1.4 11.3-11.3.3-14.3-1.6-14.3s-44.8-.1-60.1-2.4z"/><path class="st40" d="M851.3 308s-115.9 3.7-157.1-6.2c5.1 5 179.9 32.1 157.3 16 .1 0 7.8 11.6-.2-9.8z"/><path class="st40" d="M822.1 309.9c-1-2.8-47.6.7-146.7 8.2 1.8-1.6 57.1 2.1 155.5 1 0 0-7-6.3-8.8-9.2z"/><path class="st41 flame" d="M701.6 140.3s-12.6 86.2-22.7 113.9c0 0-18.7-12.1 3.5-74.5 0 0-28.5 27.3-27.5 81.4 0 0-29.4-2.3-33.5-41.8 0 0-15.8 41-15.8 61.1s8.1 84.7 88.8 74.6c-15.4 23.8-140.8 18.5-140.8 18.5l18.3-247 129.7 13.8z"/></g><defs><path id="SVGID_23_" d="M743.6 399.8c1.1-10.6 6.6-16.3 10-18.9-2.4-2.4-6.2-2.9-8.3-5.6-4.9 3.9-10.4 10.1-11.7 22.6-4.2-.5-10-.2-15.1 3.3-10.4 7.1 2.7 6.2 5.4 5.3 0 0-11.4 8.3-4.9 9.5s13.9-3.9 14-4.4-5.6 10.5.1 10.5 11-10.4 11-10.4.3 5.1 3.2 5.6 6.1-4.8 4.5-10.1-4.8-6.4-8.2-7.4z"/></defs><clipPath id="SVGID_24_"><use xlink:href="#SVGID_23_" overflow="visible"/></clipPath><g class="st42"><path class="st33" d="M706 362.1h55.1v67.4H706z"/><path class="st34" d="M754.7 380.3s-12.7 5.9-14 14.9 3 6.2 5.7 8.8 4.5 7 2.7 10.2-3.4 2.2-3.4 2.2-1.1 4.3 4.4 3.5 11.7-18.4 11.7-18.4l-7.1-21.2z"/><path class="st34" d="M742.7 408.3s-2.8 10.5-9.4 12.7c-1.5.5-3.3-1.9-3.3-1.9s-.2 3.8 1 4.3c3.4 1.3 9.4-.4 9.4-.4s6.6-7.5 2.3-14.7zM734.8 408.7s-7.3 5.5-13.3 5.7c-4.5.1-3.7-2.4-3.7-2.4s-4.5 4.8 1.2 5.2 12.7-1.8 15.8-8.5zM717.2 401.7s-2.5 3.2 1.3 3.9c2.1.4 4.2.5 6.3.4-2.2 1.3-4.5 2.2-7 2.8-4.5 1.2-4.9-5.5-4.9-5.5l4.3-1.6z"/></g><g><defs><path id="SVGID_25_" d="M842.5 428.6c-2.4-3.7-6.4-5-10.1-5.1 1-15.9 6.4-22.7 6.6-23 1.7-2.2 1.4-5.3-.8-7-2-1.6-4.9-1.4-6.7.4-.9 1-8 9.5-9.1 29.2-4.7-.1-11.1.7-15.6 5.3-8.8 9 5.3 7 7.7 5.6 0 0-9.6 10.3-3 10.2s12.9-6.5 12.9-7-3.4 11.4 2.1 10.3 8.8-12.3 8.8-12.3.1 4.9 4.2 4.9 6.4-6.3 3-11.5z"/></defs><clipPath id="SVGID_26_"><use xlink:href="#SVGID_25_" overflow="visible"/></clipPath><g class="st43"><path class="st33" d="M797.5 379.6h63.3v75.8h-63.3z"/><path class="st34" d="M841.7 395s-11 6.9-12.7 27.1c-.2 2.4.7 2.9 2.6 3.6 4.6 1.5 9.1 4.2 9.1 9.6s-3.1 7.2-3.1 7.2 6.5 4.2 8.4-1.5.8-17.6-8.2-18.9c0-1.1 6.5-23 5.7-23s-1.8-4.1-1.8-4.1z"/><path class="st34" d="M832.5 430.5s1.3 5.5-6.8 16.8c-3.2 4.5 8.2-2.1 8.2-2.1s4.5-8.8-1.4-14.7zM825.5 433.7s-5.6 6.8-11.3 8.6c-2.4.9-5 .7-7.3-.3 0 0 .3 5.5 5.9 4.3s11.6-5.3 12.7-12.6zM805.5 428.5s-1.7 5.7 3.9 4.5 7.9-2.5 7.9-2.5-1.6 3.1-7.1 7.3-9.7-4.8-9.7-4.8l5-4.5z"/></g></g><path class="st41 flame flame2" d="M653.1 162.7s-24.5 10.6-20.5 44.8c3.8 32.1-10.7 30-10.7 30s19.6 8 31.7-8c16-21.3-15.1-44.5-.5-66.8z"/><path class="st26 monster-eye monster-eye__right" d="M842.8 250.5c-10-3.8-14.7-15.5-10.7-26.2 2.6-7.1 8.8-12.2 16.3-13.4-8.9-1.4-18.1 4.1-21.7 13.4s.7 22.4 10.7 26.2c2.9 1.1 6 1.4 9.1 1-1.3-.2-2.5-.5-3.7-1z"/><ellipse class="st34" cx="747.3" cy="217" rx="4.3" ry="2.3"/><ellipse transform="rotate(-79.199 775.38 216.221)" class="st34" cx="775.4" cy="216.2" rx="2.3" ry="4.3"/><path d="M768.2 216.9c.5-.8 1.2-1.5 2-2l1.2-.7 1.4-.6 1.6-.3h1.8c1.2.1 2.4.6 3.4 1.3.8.6 1.5 1.4 2 2.3.3.6.6 1.2.7 1.9.1.3.1.5.1.8 0 .2-.2.4-.4.4h-.3l-.5-.5-1.3-1.2c-1.1-1-2.5-1.8-4-2.1h-2.6l-2.3.5-1.7.6-.6.3c-.2.1-.4 0-.5-.2-.1-.1-.1-.4 0-.5zM739.7 218l.3-.7c.3-.6.7-1.1 1.1-1.6l.9-.9 1.2-.9c1-.6 2.1-.9 3.2-1h1.7l1.6.4c.9.3 1.8.8 2.5 1.4.5.5 1 1 1.3 1.6l.2.5v.2c.1.2 0 .4-.2.5h-.5l-.5-.2-1.6-.6-1.9-.7-1.1-.2h-1.2c-.8 0-1.6.1-2.3.4l-2 1-1.4 1-.5.4c-.2.1-.4 0-.5-.1 0-.1-.1-.2-.1-.3l-.2-.2z"/></g><g id="Documents"><path class="st41 flame flame3" d="M634.2 222.6s-19.4-5.5-17.3-32.1c1.7-21.6-8.4-21.8-8.4-21.8s12.8-3.5 21.5 8.8c11.6 16.4-9.6 39.8 4.2 45.1z"/><path class="st44" d="M453.7 247.8c-.5-3.7 99.8-26.8 169.5-37.7v13s-134.7 26.1-170.1 33.6l.6-8.9z"/><defs><path id="SVGID_27_" d="M578 214.3l-10.2 113.2s13.6 1.6 19.2-15.6c3.2-9.9 12.3-7 17.5-7.7s8-7.4 10.7-6.8c5.7 1.4 7.7 13.8 10.7 15.5s7.5 1.8 10.4-1.1 3.1-8.8 6.8-9.6 8 .9 8.4 3.7 1.2 6.8 4.3 7.2c10.4 1.1 20.3-3.8 20.3-3.8l5.7-95H578z"/></defs><clipPath id="SVGID_28_"><use xlink:href="#SVGID_27_" overflow="visible"/></clipPath><g class="st45"><path class="st17" d="M532.3 183.3H713v161H532.3z"/><path class="st46" d="M572.4 309c10-3.1 5.5-18.5 12.7-18.5s6.5 5.4 15.8 0 16.9-11.5 21.9-6.4 2.5 19.5 6.9 16.9 7.8-14 13.7-14 9.4 11.9 15.9 11.9 19.5-19.1 19.5-19.1L682 322l-133.6 11 3.5-36.5s16.7 13.6 20.5 12.5z"/><path class="st47" d="M572.4 315.6c10-3.1 5.5-18.5 12.7-18.5s6.5 5.4 15.8 0 16.9-11.5 21.9-6.4 2.5 19.5 6.9 16.9 7.8-14 13.7-14 9.4 11.9 15.9 11.9 19.5-19.1 19.5-19.1l3.2 42.2-133.7 11 3.5-36.5s16.8 13.6 20.6 12.5z"/></g><path class="st48" d="M635.7 235.2l37 .5M634.5 247.2l37 .5M633.3 259.3l37 .5M632.1 271.1l37 .5"/><defs><path id="SVGID_29_" d="M586.9 231.2l-3.6 40.5 41.6 1 3-41.5z"/></defs><clipPath id="SVGID_30_"><use xlink:href="#SVGID_29_" overflow="visible"/></clipPath><g class="st49"><path class="st24" d="M574.9 219.8h66v77.7h-66z"/><g class="st50"><ellipse cx="603.6" cy="271.8" rx="16.7" ry="14.6"/><ellipse transform="matrix(.07846 -.9969 .9969 .07846 311.32 830.923)" cx="605.1" cy="247.1" rx="12.5" ry="8.7"/></g></g><path class="st51" d="M450.7 247.6l4.2 9.3s90.7-12 171.3-32.9l-1-11.6c-48.6 11.7-109 23.5-174.5 35.2z"/><path class="st26 flame flame4" d="M638.5 176.5s-6.5 7.7-1.5 19 14.5 21.9 8.2 31.3 16.7-7.6 1.7-32.1c-7.3-12-7.5-12.7-8.4-18.2z"/><g><defs><path id="SVGID_31_" d="M377.7 242.7s-8.9 11-7.8 28.2 16.4 36.3 16.4 36.3l40.2-20.8c6.6-3.4 14.1-4.4 21.3-3l9.4 1.6c7.8 1.3 16.6.5 19.9-1.2s7.7-3.2 11.4-6c4.2-3.2 7.3-7.7 8.7-12.8l5.2-18.3c.5-1.6-.4-3.3-2-3.8-.6-.2-1.3-.2-1.9.1l-10 3.3c-5.1 2.4-16.3 1.6-18.8.8l-7.7-2.8 14.4-4-16.6-2.6c-3.6-.6-7.3-2.1-12.6 0s-13.4 4.2-13.4 4.2l-56.1.8z"/></defs><clipPath id="SVGID_32_"><use xlink:href="#SVGID_31_" overflow="visible"/></clipPath><g class="st52"><path transform="rotate(-4.8 431.239 263.43)" class="st53" d="M337.6 198.4h187.3v130H337.6z"/><path class="st54" d="M480.8 240.9s-32.4 5.3-43.4 2.5-61.3 6.8-86.2 28.3l52.2-72 77.4 41.2z"/><path class="st4 glow" d="M496 240c4.2 20.7-7.8 41.2-8.3 40.4s29.2-.1 29-2.6 7-42 7-42L496 240zM364.6 304.6s59-25.4 75.7-21.9.3 8.6.3 8.6l-58.4 30-17.6-16.7z"/><path class="st55" d="M476.7 246.7l-7.4 50.4s-29-9.5-29-10.2 1.8-20.4 2.8-31.2c.4-4.3 2.8-8.1 6.5-10.3h.1c2.6-1.2 5.5-1.8 8.4-1.8l18.6 3.1z"/><path d="M466.9 256.9h6c2 0 4.1-.1 6.1-.3l1.7-.2 1.7-.3 1.7-.4 1.7-.5 3.4-1.2 3.2-1.4 2.9-1.4 2.5-1.5c1.5-.9 2.7-1.8 3.6-2.5l.9-.7.3-.3c.5-.3 1.1-.2 1.4.3.3.4.2.9-.1 1.2l-.4.3-1 .8c-1.2 1-2.4 1.9-3.7 2.7l-2.6 1.6-3 1.5-3.3 1.4-3.5 1.2-1.8.5-1.8.4-1.8.3-1.8.2-3.4.2h-3c-1.5-.1-3-.4-4.5-.8l-1.6-.6c-.2 0-.3-.2-.3-.3 0-.1 0-.1.1-.2s.3-.1.4 0zM460.9 265.8l1.9.2 2.1.2 2.7.2h6.9l3.8-.3 3.9-.7 3.8-1.1 3.6-1.4c2.1-.9 4.1-1.9 6.1-3.1 1.4-.8 2.7-1.7 4-2.7l1-.8.3-.3c.5-.3 1.1-.2 1.4.3.3.4.2.9-.1 1.2l-.4.4-1.1.9c-1.3 1-2.7 2-4.1 2.9-2 1.3-4.1 2.4-6.3 3.3l-3.7 1.5-4 1.2c-1.4.3-2.7.5-4.1.6l-4 .2h-3.7l-3.3-.4-2.8-.5-2.1-.5-1.8-.6c-.2-.1-.3-.3-.2-.5s.3-.3.5-.2h-.3zM465.1 275.5h6.7c2.3-.1 4.6-.3 6.8-.7l3.7-.9 1.9-.6 1.8-.7 1.8-.8 1.8-.9 3.4-1.9 3-2 2.6-2c1.3-1 2.5-2.1 3.6-3.2l.9-1 .3-.3c.4-.4 1-.3 1.4.1.3.3.3.8.1 1.2l-.3.4-1 1.1c-1.2 1.2-2.4 2.3-3.7 3.4l-2.7 2.1-3.1 2.1-3.5 2-3.8 1.8-2 .8-2 .6-4 .9c-2.4.4-4.8.5-7.2.4l-2.8-.3-2.2-.4-1.8-.6c-.2 0-.3-.2-.2-.4 0-.2.2-.3.3-.3.1 0 .2.1.2.1z" class="st56"/></g></g></g>
</svg>

