<svg width="88" height="74" viewBox="0 0 88 74" fill="none" xmlns="http://www.w3.org/2000/svg">
<rect width="19.8088" height="6.6159" transform="matrix(0.707108 -0.707106 0.707108 0.707106 21.7727 52.9448)" fill="#744A87"/>
<path d="M52.9333 0C67.5663 0 79.3972 11.8309 79.3972 26.4639C79.3972 41.0968 67.5663 52.9278 52.9333 52.9278C38.3004 52.9278 26.4695 41.0968 26.4695 26.4639C26.4695 11.8309 38.3004 0 52.9333 0Z" fill="#9A5CB4"/>
<path d="M52.9329 46.7017C41.7636 46.7017 32.6958 37.6339 32.6958 26.4646C32.6958 15.2953 41.7636 6.22754 52.9329 6.22754C64.1022 6.22754 73.1699 15.2953 73.1699 26.4646C73.1699 37.6339 64.1022 46.7017 52.9329 46.7017Z" fill="#C296E6"/>
<path d="M87.1792 73.1651C85.1166 65.1092 77.8001 59.1548 69.1215 59.1548C63.0504 59.1548 57.6409 62.0736 54.255 66.588C52.387 65.8097 50.3244 65.3816 48.145 65.3816C42.2685 65.3816 37.1314 68.495 34.2515 73.1651H87.1792Z" fill="#6FBF5C"/>
<path d="M11.2906 68.105C13.898 70.7124 18.14 70.7124 20.7086 68.105L34.2129 54.6006L24.7949 45.1826L11.2906 58.687C8.68309 61.2555 8.68309 65.4975 11.2906 68.105Z" fill="#744A87"/>
<path d="M15.5721 37.3606V34.2472C15.7667 27.0475 10.3571 21.599 3.11848 21.7936H0.00508731V24.907C-0.1895 32.1067 5.22003 37.5552 12.4587 37.3606H15.5721Z" fill="#9BD96F"/>
<path d="M21.798 3.11293V5.60365C21.9537 11.3634 17.5949 15.7222 11.8351 15.5665H9.34441V13.0758C9.18874 7.31602 13.5086 2.95726 19.3073 3.11293H21.798Z" fill="#6FBF5C"/>
<path d="M52.9337 42.0309C44.3329 42.0309 37.3667 35.0647 37.3667 26.464C37.3667 17.8632 44.3329 10.897 52.9337 10.897C61.5344 10.897 68.5007 17.8632 68.5007 26.464C68.5007 35.0647 61.5344 42.0309 52.9337 42.0309Z" fill="#FFFFFF"/>
<path d="M58.4988 34.6357H47.3684C46.3566 34.6357 45.5393 33.8184 45.5393 32.8066V25.5679C45.5393 24.556 46.3566 23.7388 47.3684 23.7388H58.4988C59.5107 23.7388 60.3279 24.556 60.3279 25.5679V32.8066C60.3279 33.8184 59.5107 34.6357 58.4988 34.6357Z" fill="#FFBD63"/>
<path fill-rule="evenodd" clip-rule="evenodd" d="M47.4863 22.0661C47.4863 19.1083 49.9381 16.7344 52.9348 16.7344C55.9314 16.7344 58.3832 19.1083 58.3832 22.0661V29.188H47.4863V22.0661ZM50.2102 22.1046V26.4634H55.6587V22.1046C55.6587 20.6258 54.4522 19.4583 52.9344 19.4583C51.4166 19.4583 50.2102 20.6647 50.2102 22.1046Z" fill="#FFBD63"/>
</svg>
